HIERARCHY
ROOT Hips
{
	OFFSET 0.000000 0.000000 0.000000
	CHANNELS 6 Xposition Yposition Zposition Xrotation Yrotation Zrotation
	JOINT LeftUpLeg_virtual
	{
		OFFSET 0.000000 0.000000 0.000000
		CHANNELS 3 Xrotation Yrotation Zrotation
		JOINT LeftUpLeg
		{
			OFFSET 11.394100 -6.187798 -0.413800
			CHANNELS 3 Xrotation Yrotation Zrotation
			JOINT LeftLeg
			{
				OFFSET 0.430247 -32.302673 3.732800
				CHANNELS 3 Xrotation Yrotation Zrotation
				JOINT LeftFoot
				{
					OFFSET -0.430247 -48.264931 -6.423300
					CHANNELS 3 Xrotation Yrotation Zrotation
					JOINT LeftToeBase
					{
						OFFSET 4.230900 -16.068199 23.438400
						CHANNELS 3 Xrotation Yrotation Zrotation
						JOINT LeftToe_End
						{
							OFFSET 4.510700 0.695400 19.974600
							CHANNELS 3 Xrotation Yrotation Zrotation
							End Site
							{
								OFFSET 0 0 0
							}
						}
					}
				}
			}
		}
	}
	JOINT RightUpLeg_virtual
	{
		OFFSET 0.000000 0.000000 0.000000
		CHANNELS 3 Xrotation Yrotation Zrotation
		JOINT RightUpLeg
		{
			OFFSET -11.333700 -6.187798 -0.413800
			CHANNELS 3 Xrotation Yrotation Zrotation
			JOINT RightLeg
			{
				OFFSET -0.430392 -32.302628 3.733000
				CHANNELS 3 Xrotation Yrotation Zrotation
				JOINT RightFoot
				{
					OFFSET 0.430392 -48.264973 -6.423500
					CHANNELS 3 Xrotation Yrotation Zrotation
					JOINT RightToeBase
					{
						OFFSET -4.230900 -16.068199 23.438400
						CHANNELS 3 Xrotation Yrotation Zrotation
						JOINT RightToe_End
						{
							OFFSET -4.510700 0.695400 19.974600
							CHANNELS 3 Xrotation Yrotation Zrotation
							End Site
							{
								OFFSET 0 0 0
							}
						}
					}
				}
			}
		}
	}
	JOINT Spine_virtual
	{
		OFFSET 0.000000 0.000000 0.000000
		CHANNELS 3 Xrotation Yrotation Zrotation
		JOINT Spine
		{
			OFFSET -0.002400 12.777504 0.315300
			CHANNELS 3 Xrotation Yrotation Zrotation
			JOINT Spine1
			{
				OFFSET -0.002067 5.816869 0.032633
				CHANNELS 3 Xrotation Yrotation Zrotation
				JOINT Spine1_split
				{
					OFFSET -0.002067 5.816869 0.032633
					CHANNELS 3 Xrotation Yrotation Zrotation
					JOINT Spine2
					{
						OFFSET -0.002067 5.816869 0.032633
						CHANNELS 3 Xrotation Yrotation Zrotation
						JOINT Neck_virtual
						{
							OFFSET 0.000000 0.000000 0.000000
							CHANNELS 3 Xrotation Yrotation Zrotation
							JOINT Neck
							{
								OFFSET -0.003700 21.199493 -0.826900
								CHANNELS 3 Xrotation Yrotation Zrotation
								JOINT Head
								{
									OFFSET 0.000000 20.442200 4.834800
									CHANNELS 3 Xrotation Yrotation Zrotation
									JOINT HeadTop_End
									{
										OFFSET 0.000000 34.668396 4.968400
										CHANNELS 3 Xrotation Yrotation Zrotation
										End Site
										{
											OFFSET 0 0 0
										}
									}
								}
							}
						}
						JOINT LeftShoulder_virtual
						{
							OFFSET 0.000000 0.000000 0.000000
							CHANNELS 3 Xrotation Yrotation Zrotation
							JOINT LeftShoulder
							{
								OFFSET 3.288150 8.794197 -1.372250
								CHANNELS 3 Xrotation Yrotation Zrotation
								JOINT LeftShoulder_split
								{
									OFFSET 3.288150 8.794197 -1.372250
									CHANNELS 3 Xrotation Yrotation Zrotation
									JOINT LeftArm
									{
										OFFSET 11.953299 -2.279007 -0.146200
										CHANNELS 3 Xrotation Yrotation Zrotation
										JOINT LeftForeArm
										{
											OFFSET 18.448900 0.000000 0.000000
											CHANNELS 3 Xrotation Yrotation Zrotation
											JOINT LeftHand
											{
												OFFSET 29.527798 0.000000 0.000000
												CHANNELS 3 Xrotation Yrotation Zrotation
												End Site
												{
													OFFSET 0 0 0
												}
											}
										}
									}
								}
							}
						}
						JOINT RightShoulder_virtual
						{
							OFFSET 0.000000 0.000000 0.000000
							CHANNELS 3 Xrotation Yrotation Zrotation
							JOINT RightShoulder
							{
								OFFSET -3.249400 8.794197 -1.372250
								CHANNELS 3 Xrotation Yrotation Zrotation
								JOINT RightShoulder_split
								{
									OFFSET -3.249400 8.794197 -1.372250
									CHANNELS 3 Xrotation Yrotation Zrotation
									JOINT RightArm
									{
										OFFSET -11.953299 -2.279007 -0.146200
										CHANNELS 3 Xrotation Yrotation Zrotation
										JOINT RightForeArm
										{
											OFFSET -18.448900 0.000000 0.000000
											CHANNELS 3 Xrotation Yrotation Zrotation
											JOINT RightHand
											{
												OFFSET -29.527802 0.000000 0.000000
												CHANNELS 3 Xrotation Yrotation Zrotation
												End Site
												{
													OFFSET 0 0 0
												}
											}
										}
									}
								}
							}
						}
					}
				}
			}
		}
	}
}
MOTION
Frames: 7
Frame Time: 0.03333333
-5.453355 135.474823 -9.952686 0.000000 0.000000 0.000000 4.901825 -8.884014 -0.949110 -164.870699 -26.490182 10.576730 130.725586 -11.508152 -4.104986 48.863129 -17.229318 -7.276132 2.423829 0.579143 1.775280 0.000000 0.000000 0.000000 7.526499 -14.825950 -0.917695 -141.068787 44.098662 -11.430486 123.610960 1.731693 -1.592609 35.982509 26.480734 45.659480 2.578212 -0.241897 0.838402 0.000000 0.000000 0.000000 8.929593 -17.736492 -0.074841 31.200950 6.081696 0.877259 5.226535 1.084398 1.115128 -0.715039 0.952315 -0.460320 0.000000 0.000000 0.000000 7.962775 1.052192 1.887000 7.439167 -0.155667 2.366651 -2.417014 36.079480 -24.171488 0.000000 0.000000 0.000000 6.961780 1.561877 0.584104 1.339480 -4.502394 10.470152 4.114439 -1.427686 2.580077 -37.577952 18.777472 15.125900 -3.295223 -7.642566 -2.002139 0.000000 0.000000 0.000000 8.023632 1.566790 1.244210 -1.693467 -4.500191 -28.794216 3.614751 0.159203 -2.336818 -50.430466 7.607513 -8.159141 1.298694 20.951515 -1.203486 0.000000 0.000000 0.000000 
-5.429513 134.136963 -8.889664 0.000000 0.000000 0.000000 4.802222 -9.835274 -1.025276 -166.027979 -26.077077 11.952581 131.268326 -14.943995 -3.764236 51.456726 -19.708656 -1.196105 0.222241 0.157716 2.136719 0.000000 0.000000 0.000000 7.700768 -13.938697 -1.005794 -133.330579 42.758562 -18.890326 122.670020 1.247946 -1.684463 31.092251 23.988651 45.650648 2.149755 -0.252698 0.689565 0.000000 0.000000 0.000000 9.151525 -16.589435 -0.477121 30.626780 7.169538 0.687781 4.767198 1.419002 0.961389 -0.380128 0.697911 0.574275 0.000000 0.000000 0.000000 8.330309 1.072294 1.717125 8.851543 -0.834054 2.543946 -1.156085 34.916228 -24.846956 0.000000 0.000000 0.000000 6.663640 1.736191 0.247989 1.343653 -4.030866 9.622232 3.887981 -2.319411 1.445192 -35.976068 16.557770 21.062015 -3.206436 -7.343477 -1.472445 0.000000 0.000000 0.000000 8.391360 1.678383 1.029064 -1.560661 -3.144532 -29.953569 2.741891 0.596278 -2.726338 -44.012171 3.098173 -15.320681 1.534262 22.187912 -1.436950 0.000000 0.000000 0.000000 
-5.569221 130.980621 -8.105186 0.000000 0.000000 0.000000 4.306059 -11.409262 -1.763969 -162.200272 -26.208775 14.285271 129.948830 -17.351167 -3.064357 52.003288 -21.005991 4.153006 -5.552608 -0.451602 2.534003 0.000000 0.000000 0.000000 7.079598 -13.146166 -1.852038 -122.866483 38.388228 -24.904903 120.868380 1.114098 -1.193821 22.725050 19.356012 43.787540 5.115971 0.045152 0.575084 0.000000 0.000000 0.000000 8.429583 -14.499325 -1.628285 29.528182 8.017892 1.001749 4.303981 1.669139 0.705793 -0.066969 0.826218 0.955431 0.000000 0.000000 0.000000 8.392446 1.012823 1.381373 9.496028 -1.208033 3.003996 -0.234851 33.345479 -24.721211 0.000000 0.000000 0.000000 6.286594 1.790482 -0.082653 1.223434 -3.347586 8.909018 3.496636 -3.599563 -0.180725 -33.666662 13.640464 25.403516 -2.708910 -6.695459 -0.740541 0.000000 0.000000 0.000000 8.513203 1.598569 0.616543 -0.973548 -1.014000 -29.413926 2.219522 1.476934 -2.960503 -38.053156 -0.783327 -19.689730 1.178608 25.792531 -1.397289 0.000000 0.000000 0.000000 
-6.047168 126.483749 -7.309097 0.000000 0.000000 0.000000 3.062454 -12.647556 -3.172744 -153.360573 -26.261427 18.257584 126.373936 -17.885322 -3.290904 50.971748 -19.908046 8.590909 -9.830726 -0.732208 1.860897 0.000000 0.000000 0.000000 5.555236 -12.498563 -3.181123 -111.092542 31.544559 -28.184364 118.203937 1.494652 -0.294989 14.190392 14.778794 40.298441 8.652335 0.417435 0.202507 0.000000 0.000000 0.000000 6.943115 -11.939383 -3.228431 27.936117 8.375543 1.776280 3.802828 1.801098 0.471123 0.157368 1.241574 0.942448 0.000000 0.000000 0.000000 8.063159 0.921599 1.026405 9.549598 -1.188982 3.626666 0.168302 31.772906 -23.953219 0.000000 0.000000 0.000000 5.707572 1.789513 -0.303964 0.977919 -2.594342 8.305391 2.925940 -4.794608 -1.430775 -31.344329 12.253850 27.718349 -1.907158 -5.112524 -0.027715 0.000000 0.000000 0.000000 8.212080 1.402287 0.221591 -0.215166 1.130104 -27.358994 2.455441 2.006898 -2.733071 -34.501130 -4.384708 -20.411320 0.375408 30.139265 -1.233917 0.000000 0.000000 0.000000 
-6.530707 121.002899 -6.769779 0.000000 0.000000 0.000000 1.330361 -13.419769 -4.811055 -139.453721 -25.029686 23.872230 119.724596 -15.925607 -4.816257 48.371092 -16.188332 11.453174 -9.571408 -0.543864 -0.050671 0.000000 0.000000 0.000000 3.546010 -12.348868 -4.698542 -98.936376 23.533589 -28.505222 113.718811 2.547284 0.438746 8.434194 12.321560 37.602763 8.554298 0.582270 -0.349500 0.000000 0.000000 0.000000 4.816559 -9.763577 -4.802701 25.909734 8.014276 2.679854 3.180827 1.785053 0.348618 1.301741 1.569591 0.536934 0.000000 0.000000 0.000000 7.272254 0.847189 0.772725 9.237547 -0.937568 4.133296 0.082105 30.330783 -22.694926 0.000000 0.000000 0.000000 5.078137 1.750852 -0.290638 0.772140 -1.609982 7.689266 2.321952 -5.162936 -2.015970 -29.090619 13.661855 27.134219 -1.162943 -3.051771 0.377841 0.000000 0.000000 0.000000 7.467306 1.202668 -0.042446 0.358273 2.513061 -24.224029 2.535778 2.300413 -2.050295 -33.380682 -8.984985 -17.907801 -0.690301 33.178129 -1.113132 0.000000 0.000000 0.000000 
-7.162686 115.090576 -6.015190 0.000000 0.000000 0.000000 -0.207815 -13.324746 -6.127962 -121.646434 -20.627719 29.076201 109.582968 -11.258622 -6.787063 43.541015 -11.137040 12.074367 -6.050200 -0.232593 -1.794181 0.000000 0.000000 0.000000 1.551646 -12.066547 -5.974997 -85.774684 15.693738 -26.676127 106.512347 3.990254 0.960207 6.049359 11.674141 36.411411 3.955061 0.512381 -0.807242 0.000000 0.000000 0.000000 2.674059 -7.965584 -5.988564 23.745737 6.990163 3.422071 2.544735 1.692495 0.361642 2.182684 1.886147 0.223859 0.000000 0.000000 0.000000 6.142760 0.803478 0.656479 8.678119 -0.451179 4.392411 0.078399 29.252437 -21.323364 0.000000 0.000000 0.000000 4.409933 1.680209 -0.108024 0.589086 -0.286513 6.857877 1.633280 -5.038339 -1.543102 -26.240584 18.548825 22.203763 -0.729865 -1.437385 0.407083 0.000000 0.000000 0.000000 6.447912 1.053419 -0.181971 0.682184 2.757239 -20.442085 2.430980 1.750228 -1.556770 -33.025983 -15.343636 -12.166700 -1.707414 33.623508 -1.190537 0.000000 0.000000 0.000000 
-7.790392 109.082573 -5.544922 0.000000 0.000000 0.000000 -1.568718 -12.325395 -6.817352 -102.128684 -13.392755 31.390586 96.665120 -5.288942 -6.814804 36.539992 -7.296058 9.862435 -4.015266 -0.121771 -1.508637 0.000000 0.000000 0.000000 0.028990 -10.660511 -6.638643 -71.623952 8.693489 -23.348843 96.715199 4.829336 1.694254 4.657201 10.631957 34.107202 -0.856378 0.302083 -0.689071 0.000000 0.000000 0.000000 0.959563 -6.848553 -6.662562 21.863632 5.441242 3.654386 2.030421 1.509744 0.416591 2.341408 1.848167 0.609144 0.000000 0.000000 0.000000 4.927111 0.773707 0.578983 7.740632 0.104982 4.313180 0.320357 28.547740 -19.973259 0.000000 0.000000 0.000000 3.750042 1.575743 0.052393 0.431748 1.259797 5.656243 0.671200 -4.444020 -0.641576 -22.049300 25.247907 11.672529 -0.571692 -0.696402 0.156138 0.000000 0.000000 0.000000 5.348722 0.929141 -0.230505 0.765008 1.798313 -16.737110 2.399645 1.217216 -1.223944 -30.529839 -23.387150 -2.604648 -2.274431 31.755527 -1.604120 0.000000 0.000000 0.000000 
